<?xml version="1.0" standalone="no"?>
<!DOCTYPE svg PUBLIC "-//W3C//DTD SVG 20010904//EN"
 "http://www.w3.org/TR/2001/REC-SVG-20010904/DTD/svg10.dtd">
<svg version="1.0" xmlns="http://www.w3.org/2000/svg"
 width="260.000000pt" height="260.000000pt" viewBox="0 0 260.000000 260.000000"
 preserveAspectRatio="xMidYMid meet">
<metadata>
Created by potrace 1.11, written by Peter Selinger 2001-2013
</metadata>
<g transform="translate(0.000000,260.000000) scale(0.100000,-0.100000)"
fill="#000000" stroke="none">
<path d="M954 1782 c-16 -16 -94 -100 -213 -231 -13 -14 -69 -75 -125 -135
-136 -147 -138 -149 -241 -261 -97 -106 -176 -192 -273 -295 l-60 -65 156 -3
157 -3 40 44 c167 183 207 226 258 280 l57 62 220 0 220 1 0 -193 0 -193 673
0 674 0 -1 118 0 118 -553 -1 c-546 0 -553 0 -554 20 -4 95 -4 125 1 126 3 1
194 3 425 4 231 2 427 3 435 4 12 1 15 20 14 109 0 60 -3 113 -6 118 -4 5
-187 9 -437 8 -430 -1 -431 -1 -432 20 -4 88 -4 108 2 118 6 9 148 12 556 12
l548 1 1 118 1 117 -762 0 c-726 0 -762 -1 -781 -18z m194 -293 l3 -75 -111 0
-110 0 23 25 c100 111 122 128 157 126 l35 -2 3 -74z"/>
</g>
</svg>
